<?xml version="1.0" encoding="utf-8"?>
<!-- Generator: Adobe Illustrator 17.1.0, SVG Export Plug-In . SVG Version: 6.00 Build 0)  -->
<!--DOCTYPE svg PUBLIC "-//W3C//DTD SVG 1.1//EN" "http://www.w3.org/Graphics/SVG
/1.1/DTD/svg11.dtd"-->
<svg
	xmlns="http://www.w3.org/2000/svg"
	xmlns:xlink="http://www.w3.org/1999/xlink"
	xmlns:dc="http://purl.org/dc/elements/1.1/"
	xmlns:cc="http://creativecommons.org/ns#"
	xmlns:rdf="http://www.w3.org/1999/02/22-rdf-syntax-ns#"
	version="1.1"
	id="Layer_1"
	x="0px" y="0px" viewBox="0 0 180 85" enable-background="new 0 0 180 85"
	xml:space="preserve"
	xml:lang="en"
>
<title>LACE</title>
<desc>
	Learning Analytics Community Exchange (LACE)
	(http://evidence.laceproject.eu/#!wp-evidence-hub/-/LACEweblogo.svg)
</desc>
<metadata>
	<rdf:RDF>
		<cc:Work
			rdf:about="">
			<dc:format>image/svg+xml</dc:format>
			<dc:type
				rdf:resource="http://purl.org/dc/dcmitype/StillImage" />
			<dc:title>Learning Analytics Community Exchange (LACE)</dc:title>
		</cc:Work>
	</rdf:RDF>
</metadata>

<line fill="none" stroke="#596190" stroke-miterlimit="10" x1="30.344" y1="41.181" x2="30.344" y2="70.54"/>
<line fill="none" stroke="#596190" stroke-miterlimit="10" x1="30.344" y1="41.181" x2="30.344" y2="5.729"/>
<g>
	<path fill="#43672B" d="M65.431,16.438h7.206v47.393h11.779v6.097H65.431V16.438z"/>
	<path fill="#43672B" d="M102.93,16.438h5.612l11.467,53.489h-7.137L110.863,59.5h-10.602l-2.044,10.428h-6.929L102.93,16.438z
		 M109.823,53.923l-1.594-8.522c-1.062-5.796-1.929-11.986-2.598-18.569c-0.324,3.21-0.739,6.461-1.247,9.752
		c-0.509,3.291-1.109,6.784-1.802,10.479l-1.316,6.859H109.823z"/>
	<path fill="#43672B" d="M148.292,17.305v6.479c-1.849-0.901-3.396-1.351-4.643-1.351c-1.71,0-3.176,0.421-4.399,1.264
		c-1.225,0.844-2.235,2.143-3.031,3.897c-0.797,1.755-1.386,3.979-1.768,6.669c-0.381,2.691-0.571,5.872-0.571,9.544
		c0,13.211,3.383,19.816,10.15,19.816c1.178,0,2.599-0.369,4.262-1.108v6.616c-1.732,0.97-3.673,1.455-5.82,1.455
		c-10.832,0-16.248-8.845-16.248-26.537c0-9.561,1.322-16.674,3.967-21.34c2.645-4.665,6.691-6.998,12.143-6.998
		C144.342,15.711,146.328,16.243,148.292,17.305z"/>
	<path fill="#43672B" d="M157.902,16.438h19.157v6.098h-11.952v16.94h10.602v6.097h-10.602v18.258h11.952v6.097h-19.157V16.438z"/>
</g>
<line fill="none" stroke="#596190" stroke-miterlimit="10" x1="30.141" y1="40.763" x2="7.113" y2="59.557"/>
<line fill="none" stroke="#596190" stroke-miterlimit="10" x1="46.559" y1="51.655" x2="30.212" y2="40.729"/>
<line fill="none" stroke="#596190" stroke-miterlimit="10" x1="30.208" y1="40.722" x2="47.077" y2="25.352"/>
<line fill="none" stroke="#596190" stroke-miterlimit="10" x1="30.36" y1="40.657" x2="13.027" y2="26.533"/>
<circle fill="#FFFFFF" stroke="#596190" stroke-miterlimit="10" cx="30.212" cy="40.729" r="5.517"/>
<circle fill="none" stroke="#596190" stroke-miterlimit="10" cx="30.212" cy="40.729" r="9.416"/>
<circle fill="#FFFFFF" stroke="#596190" stroke-miterlimit="10" cx="46.559" cy="51.655" r="5.261"/>
<circle fill="#596190" cx="46.559" cy="51.655" r="3.165"/>
<circle fill="#FFFFFF" stroke="#596190" stroke-miterlimit="10" cx="47.077" cy="25.352" r="5.261"/>
<circle fill="#596190" cx="47.077" cy="25.352" r="3.165"/>
<circle fill="#FFFFFF" stroke="#596190" stroke-miterlimit="10" cx="13.027" cy="26.533" r="5.261"/>
<circle fill="#596190" cx="13.027" cy="26.533" r="3.165"/>
<circle fill="#FFFFFF" stroke="#596190" stroke-miterlimit="10" cx="30.389" cy="6.262" r="5.261"/>
<circle fill="#596190" cx="30.389" cy="6.262" r="3.165"/>
<circle fill="#FFFFFF" stroke="#596190" stroke-miterlimit="10" cx="7.113" cy="59.557" r="5.261"/>
<circle fill="#596190" cx="7.113" cy="59.557" r="3.165"/>
<circle fill="#FFFFFF" stroke="#596190" stroke-miterlimit="10" cx="30.344" cy="70.54" r="5.261"/>
<circle fill="#596190" cx="30.344" cy="70.54" r="3.165"/>
<circle fill="#596190" cx="30.212" cy="40.729" r="3.911"/>
</svg>
