<?xml version="1.0" encoding="utf-8"?>
<!-- Generator: Adobe Illustrator 15.0.2, SVG Export Plug-In . SVG Version: 6.00 Build 0)  -->
<!DOCTYPE svg PUBLIC "-//W3C//DTD SVG 1.1//EN" "http://www.w3.org/Graphics/SVG/1.1/DTD/svg11.dtd">
<svg version="1.1" id="Layer_1" xmlns="http://www.w3.org/2000/svg" xmlns:xlink="http://www.w3.org/1999/xlink" x="0px" y="0px"
	 width="181.4px" height="70.9px" viewBox="0 0 181.4 70.9" enable-background="new 0 0 181.4 70.9" xml:space="preserve">
<g>
	<path fill="#58595B" d="M96.4,16.6c4.8,0,9,1.7,12.4,5.2c3.4,3.5,5.2,7.6,5.2,12.5c0,4.9-1.7,9.1-5.2,12.5
		c-3.4,3.5-7.6,5.2-12.4,5.2c-4.9,0-9.1-1.7-12.5-5.2c-3.4-3.4-5.2-7.6-5.2-12.5c0-4.8,1.7-9,5.2-12.5
		C87.3,18.3,91.5,16.6,96.4,16.6z M96.4,25.4c-2.5,0-4.6,0.9-6.3,2.6c-1.7,1.7-2.6,3.8-2.6,6.2c0,2.5,0.8,4.6,2.6,6.3
		c1.7,1.7,3.8,2.6,6.3,2.6c2.4,0,4.5-0.9,6.2-2.6c1.7-1.7,2.6-3.8,2.6-6.3c0-2.4-0.9-4.5-2.6-6.2C100.9,26.3,98.8,25.4,96.4,25.4z"
		/>
	<path fill="#58595B" d="M146.8,34.3h-0.1v4.4h-25.3c0.7,1.3,1.8,2.4,3.2,3.2c1.4,0.8,2.9,1.2,4.6,1.2h23V52h-23
		c-4.9,0-9.1-1.7-12.5-5.2c-3.4-3.4-5.2-7.6-5.2-12.5c0-4.8,1.7-9,5.2-12.5c3.4-3.5,7.6-5.2,12.5-5.2c4.8,0,9,1.7,12.5,5.2
		C145,25.3,146.8,29.5,146.8,34.3z M121.3,29.8h15.3c-0.8-1.2-1.8-2.3-3.2-3.1c-1.4-0.8-2.8-1.3-4.4-1.3c-1.7,0-3.2,0.4-4.6,1.3
		C123.2,27.5,122.1,28.5,121.3,29.8z"/>
	<path fill="#58595B" d="M149.8,34.3c0-4.9,1.7-9.1,5.2-12.5c3.4-3.4,7.6-5.2,12.5-5.2h14.2v8.8h-14.2c-2.5,0-4.6,0.9-6.3,2.6
		c-1.7,1.7-2.6,3.8-2.6,6.2V52h-8.8V34.3z"/>
	<radialGradient id="SVGID_1_" cx="36.8066" cy="35.6118" r="35.4856" gradientUnits="userSpaceOnUse">
		<stop  offset="0" style="stop-color:#FFFFFF"/>
		<stop  offset="0.1026" style="stop-color:#FFEDDA"/>
		<stop  offset="0.3548" style="stop-color:#FECC97"/>
		<stop  offset="0.5796" style="stop-color:#FBB366"/>
		<stop  offset="0.7687" style="stop-color:#F9A23E"/>
		<stop  offset="0.9147" style="stop-color:#F89725"/>
		<stop  offset="1" style="stop-color:#F7941E"/>
	</radialGradient>
	<path fill="url(#SVGID_1_)" d="M70.6,37.8c1.3-1.5,1.9-3.5,1.7-5.5c-0.2-2.5-1.7-4.6-3.7-5.7c0.2-0.3,0.3-0.7,0.5-1.1
		c0.6-1.9,0.5-3.9-0.4-5.7c-1.1-2.2-3.1-3.7-5.5-4c0.3-2.3-0.6-4.7-2.4-6.4c-1.4-1.3-3.2-1.9-5-1.9c-0.5,0-1,0.1-1.6,0.2
		c-0.1-0.4-0.2-0.8-0.4-1.1c-0.8-1.8-2.3-3.2-4.1-3.9c-0.9-0.3-1.8-0.5-2.7-0.5c-1.5,0-2.9,0.4-4.1,1.2c-1.4-1.9-3.6-3.1-6.1-3.1
		c-2.7,0-5,1.4-6.3,3.5c-1.2-0.9-2.8-1.4-4.4-1.4c-1,0-1.9,0.2-2.8,0.6C21,3.8,19.4,5.8,18.9,8c-0.5-0.1-0.9-0.1-1.4-0.1
		c-1.9,0-3.7,0.7-5.1,2c-1.8,1.7-2.6,4.1-2.3,6.4c-2.3,0.4-4.4,2-5.4,4.1c-1.1,2.3-0.9,4.8,0.2,6.8c-2,1.2-3.4,3.3-3.6,5.8
		c-0.2,2.5,0.9,4.8,2.6,6.3c-0.2,0.3-0.5,0.7-0.6,1c-0.9,1.8-1.2,3.8-0.6,5.7c0.7,2.3,2.5,4.1,4.7,4.9c-0.1,0.4-0.2,0.8-0.2,1.2
		c-0.3,2,0.3,3.9,1.5,5.5c1.4,1.8,3.6,2.9,5.9,2.9c0.1,0,0.2,0,0.3,0c0,0.4,0.1,0.8,0.2,1.2c0.5,1.9,1.7,3.6,3.4,4.6
		c1.2,0.7,2.5,1.1,3.9,1.1c1,0,2-0.2,2.9-0.6c0.2,0.4,0.4,0.7,0.6,1c1.1,1.6,2.9,2.7,4.8,3.1C31.1,71,31.5,71,32,71
		c2,0,3.9-0.8,5.2-2.1c1.3,1.3,3.1,2,5.1,2c0.5,0,1,0,1.5-0.1c2.4-0.5,4.4-2.1,5.3-4.2c0.9,0.4,1.8,0.5,2.8,0.5c1.4,0,2.8-0.4,4-1.2
		c2.1-1.3,3.3-3.5,3.5-5.9c0,0,0.1,0,0.1,0c2.4,0,4.6-1.1,6-3c1.5-2,1.8-4.5,1.1-6.7c2.2-0.8,4-2.7,4.6-5c0.7-2.4,0.1-4.9-1.4-6.7
		C70.1,38.4,70.4,38.1,70.6,37.8z M67.4,35.2c-0.6,0.7-1.3,1.1-2.2,1.2c-0.1,0-0.2,0-0.3,0c-1.4,0-2.7-0.9-3.1-2.3l-21,2.1l20.4,5.7
		c0.6-1,1.7-1.7,2.9-1.7c0.3,0,0.6,0,0.9,0.1c1.7,0.5,2.8,2.3,2.3,4c-0.4,1.4-1.7,2.4-3.2,2.4c-0.3,0-0.6,0-0.9-0.1
		c-0.8-0.2-1.5-0.8-2-1.5c-0.3-0.5-0.5-1.2-0.4-1.8l-20.4-5.7l17,12.6c0.6-0.5,1.3-0.8,2.1-0.8c0.7,0,1.4,0.2,2,0.6
		c1.5,1.1,1.8,3.1,0.7,4.6c-0.6,0.8-1.6,1.3-2.6,1.3c-0.7,0-1.4-0.2-2-0.6c-0.7-0.5-1.2-1.3-1.3-2.2c-0.1-0.6,0-1.2,0.2-1.8
		l-17-12.6l11.3,17.9c0.4-0.1,0.7-0.2,1.1-0.2c1.1,0,2.2,0.6,2.8,1.5c1,1.5,0.5,3.6-1,4.5c-0.5,0.3-1.1,0.5-1.7,0.5
		c-1.1,0-2.2-0.6-2.8-1.5c-0.5-0.7-0.6-1.6-0.4-2.5c0.1-0.6,0.4-1.2,0.9-1.6L38.3,39.5l4.1,20.7c1.5,0,2.8,1.1,3.1,2.6
		c0.3,1.8-0.8,3.5-2.6,3.8c-0.2,0-0.4,0.1-0.6,0.1c-1.6,0-2.9-1.1-3.2-2.6c-0.2-0.9,0-1.7,0.5-2.5c0.4-0.5,0.8-0.9,1.4-1.2
		l-4.1-20.7l-3.7,20.8c1.4,0.6,2.2,2.1,2,3.6c-0.3,1.6-1.6,2.7-3.2,2.7c-0.2,0-0.4,0-0.6-0.1c-0.9-0.1-1.6-0.6-2.1-1.3
		c-0.5-0.7-0.7-1.6-0.5-2.4c0.3-1.5,1.5-2.6,3.1-2.7l3.7-20.8L24.6,57.6c1.1,1,1.3,2.7,0.5,4.1c-0.6,1-1.6,1.6-2.8,1.6
		c-0.6,0-1.2-0.2-1.7-0.5c-0.7-0.5-1.3-1.2-1.5-2c-0.2-0.8-0.1-1.7,0.4-2.5c0.6-1,1.7-1.6,2.8-1.6c0.4,0,0.7,0.1,1,0.2l10.9-18.1
		l-16.7,13c0.6,1.4,0.3,3-1,4c-0.6,0.5-1.3,0.7-2,0.7c-1,0-2-0.5-2.6-1.3c-0.5-0.7-0.8-1.5-0.7-2.4c0.1-0.9,0.5-1.6,1.2-2.2
		c0.6-0.4,1.3-0.7,2-0.7c0.8,0,1.5,0.3,2.1,0.8l16.7-13l-20.2,6.1c0.1,1.5-0.8,2.9-2.3,3.4c-0.3,0.1-0.6,0.1-0.9,0.1
		c-1.4,0-2.7-1-3.1-2.3C6.5,44,6.6,43.1,7,42.4c0.4-0.8,1.1-1.3,1.9-1.6c0.3-0.1,0.6-0.1,0.9-0.1c1.2,0,2.3,0.7,2.9,1.7L33,36.2
		l-21.1-1.6c-0.4,1.3-1.7,2.3-3.1,2.3c-0.1,0-0.2,0-0.3,0c-1.8-0.1-3.2-1.7-3-3.5c0.1-1.7,1.6-3,3.3-3c0.1,0,0.2,0,0.3,0
		c0.9,0.1,1.7,0.5,2.2,1.1c0.4,0.5,0.7,1.1,0.8,1.7l21.1,1.6L14,25.7c-0.6,0.8-1.6,1.3-2.6,1.3c-0.5,0-1-0.1-1.4-0.3
		c-1.6-0.8-2.3-2.7-1.5-4.4c0.5-1.1,1.7-1.9,3-1.9c0.5,0,1,0.1,1.4,0.3c0.8,0.4,1.4,1,1.7,1.9c0.2,0.6,0.2,1.2,0.1,1.8l19.1,9.1
		L19.2,18.2c-0.5,0.3-1.1,0.5-1.7,0.5c-0.9,0-1.8-0.4-2.4-1c-1.2-1.3-1.2-3.4,0.1-4.6c0.6-0.6,1.4-0.9,2.3-0.9c0.9,0,1.8,0.4,2.4,1
		c0.6,0.6,0.9,1.5,0.9,2.3c0,0.6-0.2,1.2-0.6,1.7l14.5,15.4l-8-19.6c-0.2,0-0.4,0-0.5,0c-1.3,0-2.5-0.8-3-2
		c-0.7-1.7,0.1-3.6,1.8-4.3c0.4-0.2,0.8-0.2,1.2-0.2c1.3,0,2.5,0.8,3,2c0.3,0.8,0.3,1.7,0,2.5c-0.2,0.6-0.6,1.1-1.2,1.4l8.1,19.7
		V10.9c-1.5-0.3-2.6-1.6-2.6-3.2c0-1.8,1.5-3.3,3.3-3.3c1.8,0,3.3,1.5,3.3,3.3c0,1.6-1.1,2.9-2.6,3.2V32l7.6-19.7
		c-1.2-0.8-1.8-2.4-1.2-3.9c0.5-1.3,1.7-2.1,3.1-2.1c0.4,0,0.8,0.1,1.2,0.2C49,6.8,49.6,7.4,50,8.2c0.4,0.8,0.4,1.7,0.1,2.5
		c-0.5,1.3-1.7,2.1-3.1,2.1c-0.2,0-0.3,0-0.5,0l-7.6,19.7l14.2-15.7c-0.4-0.5-0.6-1.1-0.6-1.7c0-0.9,0.3-1.7,0.8-2.4
		c0.6-0.7,1.5-1.1,2.4-1.1c0.8,0,1.6,0.3,2.2,0.9c1.3,1.2,1.4,3.3,0.2,4.6c-0.6,0.7-1.5,1.1-2.4,1.1c-0.6,0-1.1-0.2-1.6-0.4
		L39.9,33.5L58.8,24c-0.4-1.5,0.3-3,1.7-3.7c0.5-0.2,1-0.4,1.5-0.4c1.3,0,2.4,0.7,2.9,1.8c0.4,0.8,0.5,1.7,0.2,2.5
		c-0.3,0.8-0.9,1.5-1.6,1.9c-0.5,0.2-1,0.3-1.5,0.3c-1,0-1.9-0.4-2.5-1.2l-18.9,9.5l21-2.1c0.2-1.5,1.4-2.7,2.9-2.9
		c0.1,0,0.2,0,0.3,0c1.7,0,3.1,1.3,3.3,3C68.2,33.6,68,34.5,67.4,35.2z"/>
	<g>
		<path fill="#F7941E" d="M77.6,60.6l4.5,0c1,0,1.8,0.2,2.4,0.7s0.8,1.1,0.8,1.9c0,0.5-0.1,0.8-0.2,1.1c-0.1,0.3-0.3,0.5-0.5,0.7
			c-0.2,0.2-0.4,0.3-0.5,0.4c-0.2,0.1-0.3,0.1-0.4,0.2v0c0.1,0,0.3,0.1,0.5,0.1c0.2,0.1,0.3,0.2,0.5,0.3c0.1,0.2,0.3,0.4,0.4,0.6
			c0.1,0.2,0.1,0.6,0.1,0.9c0,0.6,0,1.1,0.1,1.5c0.1,0.5,0.2,0.8,0.4,1l-1.8,0c-0.1-0.2-0.2-0.4-0.2-0.7c0-0.2,0-0.5,0-0.7
			c0-0.4,0-0.8-0.1-1.1c-0.1-0.3-0.2-0.6-0.3-0.8c-0.1-0.2-0.3-0.4-0.6-0.5c-0.2-0.1-0.6-0.1-0.9-0.1l-2.4,0l0,3.9l-1.7,0L77.6,60.6
			z M79.3,65l2.7,0c0.5,0,0.9-0.1,1.2-0.4c0.3-0.3,0.4-0.6,0.4-1.1c0-0.3,0-0.5-0.1-0.7c-0.1-0.2-0.2-0.3-0.4-0.4s-0.3-0.2-0.5-0.2
			C82.4,62,82.2,62,82,62l-2.7,0V65z"/>
		<path fill="#F7941E" d="M87,60.6l6.8,0v1.4l-5.2,0l0,2.5l4.8,0v1.4l-4.8,0l0,2.8l5.3,0v1.4l-6.9,0L87,60.6z"/>
		<path fill="#F7941E" d="M96.5,67c0,0.4,0.1,0.7,0.2,0.9c0.1,0.3,0.3,0.5,0.5,0.6c0.2,0.2,0.5,0.3,0.8,0.4c0.3,0.1,0.6,0.1,0.9,0.1
			c0.4,0,0.7,0,0.9-0.1s0.5-0.2,0.6-0.3c0.2-0.1,0.3-0.3,0.3-0.5c0.1-0.2,0.1-0.3,0.1-0.5c0-0.4-0.1-0.6-0.2-0.8s-0.3-0.3-0.5-0.4
			c-0.3-0.1-0.7-0.2-1.2-0.4c-0.4-0.1-1-0.3-1.7-0.4c-0.4-0.1-0.7-0.2-1-0.4c-0.3-0.2-0.5-0.4-0.6-0.6c-0.2-0.2-0.3-0.4-0.3-0.7
			c-0.1-0.2-0.1-0.5-0.1-0.7c0-0.5,0.1-0.9,0.3-1.2c0.2-0.4,0.5-0.6,0.8-0.9c0.3-0.2,0.7-0.4,1.1-0.5c0.4-0.1,0.8-0.2,1.3-0.2
			c0.5,0,1,0.1,1.4,0.2c0.4,0.1,0.8,0.3,1.2,0.6s0.6,0.6,0.8,1s0.3,0.8,0.3,1.3l-1.7,0c0-0.6-0.3-1-0.6-1.3s-0.8-0.4-1.4-0.4
			c-0.2,0-0.4,0-0.6,0.1c-0.2,0-0.4,0.1-0.6,0.2c-0.2,0.1-0.3,0.2-0.4,0.4c-0.1,0.2-0.2,0.4-0.2,0.6c0,0.3,0.1,0.6,0.3,0.8
			c0.2,0.2,0.5,0.3,0.8,0.4c0,0,0.2,0,0.4,0.1c0.2,0.1,0.5,0.1,0.8,0.2c0.3,0.1,0.6,0.2,0.9,0.2c0.3,0.1,0.5,0.1,0.6,0.2
			c0.3,0.1,0.6,0.2,0.8,0.4c0.2,0.2,0.4,0.4,0.6,0.6c0.2,0.2,0.3,0.5,0.3,0.7c0.1,0.2,0.1,0.5,0.1,0.7c0,0.5-0.1,1-0.3,1.4
			c-0.2,0.4-0.5,0.7-0.9,0.9c-0.4,0.2-0.8,0.4-1.2,0.5c-0.5,0.1-0.9,0.2-1.4,0.2c-0.5,0-1.1-0.1-1.5-0.2c-0.5-0.1-0.9-0.3-1.3-0.6
			s-0.6-0.6-0.8-1.1c-0.2-0.4-0.3-0.9-0.3-1.5L96.5,67z"/>
		<path fill="#F7941E" d="M104,60.7l6.8,0v1.4l-5.2,0l0,2.5l4.8,0v1.4l-4.8,0l0,2.8l5.3,0v1.4l-6.9,0L104,60.7z"/>
		<path fill="#F7941E" d="M114.9,60.7l1.8,0l3.7,9.5l-1.8,0l-0.9-2.5l-3.8,0l-0.9,2.5l-1.7,0L114.9,60.7z M114.4,66.4l2.9,0
			l-1.4-4.1h0L114.4,66.4z"/>
		<path fill="#F7941E" d="M121.3,60.7l4.5,0c1,0,1.8,0.2,2.4,0.7c0.5,0.5,0.8,1.1,0.8,1.9c0,0.5-0.1,0.8-0.2,1.1
			c-0.1,0.3-0.3,0.5-0.5,0.7c-0.2,0.2-0.4,0.3-0.5,0.4c-0.2,0.1-0.3,0.1-0.4,0.2v0c0.1,0,0.3,0.1,0.5,0.1c0.2,0.1,0.3,0.2,0.5,0.3
			c0.1,0.2,0.3,0.4,0.4,0.6c0.1,0.2,0.1,0.6,0.1,0.9c0,0.6,0,1.1,0.1,1.5c0.1,0.5,0.2,0.8,0.4,1l-1.8,0c-0.1-0.2-0.2-0.4-0.2-0.7
			c0-0.2,0-0.5,0-0.7c0-0.4,0-0.8-0.1-1.1c-0.1-0.3-0.1-0.6-0.3-0.8c-0.1-0.2-0.3-0.4-0.6-0.5c-0.2-0.1-0.6-0.1-0.9-0.1l-2.4,0
			l0,3.9l-1.7,0L121.3,60.7z M122.9,65l2.7,0c0.5,0,0.9-0.1,1.2-0.4c0.3-0.3,0.4-0.6,0.4-1.1c0-0.3,0-0.5-0.1-0.7
			c-0.1-0.2-0.2-0.3-0.4-0.4c-0.2-0.1-0.3-0.2-0.5-0.2c-0.2,0-0.4-0.1-0.6-0.1l-2.7,0L122.9,65z"/>
		<path fill="#F7941E" d="M137.1,63.7c-0.1-0.3-0.2-0.5-0.3-0.8c-0.1-0.2-0.3-0.4-0.5-0.6c-0.2-0.2-0.4-0.3-0.7-0.4
			c-0.3-0.1-0.6-0.1-0.9-0.1c-0.5,0-0.9,0.1-1.3,0.3c-0.4,0.2-0.7,0.5-0.9,0.8c-0.2,0.3-0.4,0.7-0.5,1.2c-0.1,0.4-0.2,0.9-0.2,1.3
			c0,0.5,0.1,0.9,0.2,1.3c0.1,0.4,0.3,0.8,0.5,1.2c0.2,0.3,0.5,0.6,0.9,0.8c0.4,0.2,0.8,0.3,1.3,0.3c0.4,0,0.7-0.1,1-0.2
			c0.3-0.1,0.5-0.3,0.7-0.5c0.2-0.2,0.4-0.5,0.5-0.8c0.1-0.3,0.2-0.6,0.2-1l1.6,0c0,0.6-0.2,1.1-0.4,1.6c-0.2,0.5-0.5,0.9-0.8,1.2
			c-0.4,0.3-0.8,0.6-1.3,0.8c-0.5,0.2-1,0.3-1.6,0.3c-0.7,0-1.3-0.1-1.9-0.4c-0.6-0.3-1-0.6-1.4-1.1c-0.4-0.5-0.7-1-0.9-1.6
			s-0.3-1.2-0.3-1.9c0-0.7,0.1-1.3,0.3-1.9c0.2-0.6,0.5-1.1,0.9-1.6c0.4-0.5,0.9-0.8,1.4-1.1c0.6-0.3,1.2-0.4,1.9-0.4
			c0.5,0,1,0.1,1.5,0.2c0.5,0.1,0.9,0.4,1.2,0.6c0.4,0.3,0.7,0.6,0.9,1c0.2,0.4,0.4,0.9,0.4,1.4L137.1,63.7z"/>
		<path fill="#F7941E" d="M140.2,60.7l1.7,0l0,3.8l4.3,0l0-3.8l1.7,0l0,9.5l-1.7,0v-4.3l-4.3,0l0,4.3l-1.7,0L140.2,60.7z"/>
		<path fill="#F7941E" d="M153.5,60.7l1.7,0l0,3.8l4.3,0l0-3.8l1.7,0l0,9.5l-1.7,0l0-4.3l-4.3,0l0,4.3l-1.7,0L153.5,60.7z"/>
		<path fill="#F7941E" d="M163.1,60.7l1.7,0l0,5.5c0,0.3,0,0.6,0,1c0,0.3,0.1,0.6,0.3,0.9c0.1,0.3,0.4,0.5,0.7,0.6
			c0.3,0.2,0.7,0.3,1.3,0.3c0.5,0,1-0.1,1.3-0.3c0.3-0.2,0.5-0.4,0.7-0.6c0.1-0.3,0.2-0.6,0.3-0.9c0-0.3,0-0.7,0-1l0-5.5l1.7,0
			l0,6.1c0,0.6-0.1,1.1-0.3,1.6c-0.2,0.5-0.5,0.8-0.8,1.1c-0.3,0.3-0.8,0.5-1.2,0.7s-1,0.2-1.6,0.2c-0.6,0-1.1-0.1-1.6-0.2
			c-0.5-0.2-0.9-0.4-1.2-0.7c-0.3-0.3-0.6-0.7-0.8-1.1c-0.2-0.5-0.3-1-0.3-1.6L163.1,60.7z"/>
		<path fill="#F7941E" d="M172.8,60.7l4.6,0c0.9,0,1.5,0.2,2,0.6c0.5,0.4,0.8,1,0.8,1.8c0,0.5-0.1,0.9-0.4,1.2
			c-0.2,0.3-0.6,0.6-1,0.8v0c0.6,0.1,1,0.4,1.3,0.8c0.3,0.4,0.5,1,0.5,1.6c0,0.4-0.1,0.7-0.2,1c-0.1,0.3-0.3,0.6-0.6,0.8
			c-0.3,0.2-0.6,0.4-1.1,0.6s-1,0.2-1.6,0.2l-4.4,0L172.8,60.7z M174.4,68.8l2.9,0c0.5,0,0.9-0.1,1.2-0.4c0.3-0.3,0.4-0.6,0.4-1.1
			c0-0.5-0.1-0.8-0.4-1.1c-0.3-0.3-0.7-0.4-1.2-0.4l-2.9,0L174.4,68.8z M174.4,64.7l2.7,0c0.4,0,0.7-0.1,1-0.3
			c0.3-0.2,0.4-0.6,0.4-1c0-0.5-0.1-0.8-0.4-1c-0.2-0.2-0.6-0.3-1-0.3l-2.7,0V64.7z"/>
	</g>
</g>
</svg>
